<svg width="1280" height="720" xmlns="http://www.w3.org/2000/svg" xmlns:xlink="http://www.w3.org/1999/xlink" overflow="hidden"><defs><clipPath id="clip0"><path d="M0 0 1280 0 1280 720 0 720Z" fill-rule="evenodd" clip-rule="evenodd"/></clipPath></defs><g clip-path="url(#clip0)"><rect x="0" y="0" width="1280" height="720" fill="#FFFFFF"/><path d="M493.5 303.5 571.5 303.5 571.5 294.5 589.5 312.5 571.5 330.5 571.5 321.5 493.5 321.5Z" stroke="#787878" stroke-miterlimit="8" fill="#A5A5A5" fill-rule="evenodd"/><text font-family="DengXian,DengXian_MSFontService,sans-serif" font-weight="700" font-size="24" transform="translate(350.105 206)">n = 2<tspan x="325.073" y="0">n = 3</tspan><tspan font-weight="400" x="4.09753" y="39">0    0</tspan><tspan font-weight="400" x="4.09753" y="68">0    1</tspan><tspan font-weight="400" x="4.09753" y="147">1    0</tspan><tspan font-weight="400" x="4.09753" y="176">1    1</tspan><tspan font-weight="400" x="328" y="39">0 0 0</tspan><tspan font-weight="400" x="328" y="68">0 0 1</tspan><tspan font-weight="400" x="328" y="97">0 1 </tspan><tspan font-weight="400" x="366.333" y="97">1</tspan><tspan font-weight="400" x="328" y="126">0 1 </tspan><tspan font-weight="400" x="366.333" y="126">0</tspan><tspan font-weight="400" x="331.707" y="197">1 1 </tspan><tspan font-weight="400" x="370.041" y="197">0</tspan><tspan font-weight="400" x="331.707" y="226">1 1 </tspan><tspan font-weight="400" x="370.041" y="226">1</tspan><tspan font-weight="400" x="331.707" y="255">1 0 1</tspan><tspan font-weight="400" x="331.707" y="284">1 0 0</tspan></text><path d="M345.5 306.5 412.817 306.5" stroke="#A5A5A5" stroke-miterlimit="8" fill="none" fill-rule="evenodd"/><path d="M672.5 360.5 739.817 360.5" stroke="#A5A5A5" stroke-miterlimit="8" fill="none" fill-rule="evenodd"/><path d="M670.5 281.5C670.5 246.706 676.32 218.5 683.5 218.5 690.68 218.5 696.5 246.706 696.5 281.5 696.5 316.294 690.68 344.5 683.5 344.5 676.32 344.5 670.5 316.294 670.5 281.5Z" stroke="#FF0000" stroke-miterlimit="8" fill="none" fill-rule="evenodd"/><path d="M672.5 439.5C672.5 404.706 678.544 376.5 686 376.5 693.456 376.5 699.5 404.706 699.5 439.5 699.5 474.294 693.456 502.5 686 502.5 678.544 502.5 672.5 474.294 672.5 439.5Z" stroke="#FF0000" stroke-miterlimit="8" fill="none" fill-rule="evenodd"/></g></svg>